Coordinates
version=1
nRows=12
nColumns=24
inDegrees=yes

Units are S.I. units (second, meters, Newtons, ...)
Angles are in degrees.

endheader
time	pelvis_tilt	pelvis_list	pelvis_rotation	pelvis_tx	pelvis_ty	pelvis_tz	hip_flexion_r	hip_adduction_r	hip_rotation_r	knee_angle_r	ankle_angle_r	subtalar_angle_r	mtp_angle_r	hip_flexion_l	hip_adduction_l	hip_rotation_l	knee_angle_l	ankle_angle_l	subtalar_angle_l	mtp_angle_l	lumbar_extension	lumbar_bending	lumbar_rotation
      0.88300000	     -2.20698635	     -2.32223110	     -1.29895041	     -0.23869298	      1.05211416	      0.34213082	     -4.68730318	      7.69123782	      3.11607671	    -13.48728602	     10.73730394	    -13.19751795	      3.10231411	     24.11676161	     -1.07165101	     -3.78955017	     -1.59349699	      0.70978052	     -1.75728716	      5.83976192	      3.26812644	      6.72082330	      2.95684322
      0.88716667	     -2.15152574	     -2.31608053	     -1.29627115	     -0.23272239	      1.05157658	      0.34193999	     -4.85573732	      7.66300073	      2.94467511	    -13.99347061	     10.94727602	    -12.71929390	      3.07735182	     23.97746172	     -1.00016774	     -3.96956079	     -1.55916472	      0.85012470	     -0.97425238	      5.63695256	      3.20636074	      6.73371006	      2.98572268
      0.89133333	     -2.15265781	     -2.33552322	     -1.33944736	     -0.22679889	      1.05097177	      0.34181464	     -4.94203350	      7.66044864	      2.87939628	    -14.53178828	     10.92508625	    -12.72746989	      3.07538598	     23.88105874	     -0.97902584	     -3.94846715	     -1.55945904	      0.84447501	     -0.91132349	      5.62197137	      3.26930764	      6.73817108	      2.98861134
      0.89550000	     -2.10749169	     -2.32202995	     -1.29846452	     -0.22069774	      1.05045365	      0.34149682	     -5.06474511	      7.61325534	      2.57117558	    -15.10507580	     10.98830044	    -12.41207043	      3.07201220	     23.74690853	     -0.87750801	     -4.00481610	     -1.64783616	      0.79586942	     -0.49915686	      5.52353949	      3.28251916	      6.75890421	      3.02614447
      0.89966667	     -2.10192568	     -2.32509530	     -1.37210922	     -0.21473085	      1.04992251	      0.34142249	     -5.11738491	      7.58136653	      2.52081417	    -15.73118787	     10.95457372	    -12.38429289	      3.07246331	     23.62518307	     -0.85424721	     -3.92818848	     -1.75209805	      0.77841706	     -0.41250541	      5.51184079	      3.33040419	      6.74464132	      3.03040490
      0.90383333	     -2.08360258	     -2.31831285	     -1.43606376	     -0.20870795	      1.04943516	      0.34129112	     -5.16015568	      7.53150680	      2.39867289	    -16.40607822	     10.90705692	    -12.31815773	      3.07452890	     23.48699308	     -0.81203429	     -3.86523942	     -1.91224706	      0.73510911	     -0.30319915	      5.50126920	      3.37574537	      6.73027230	      3.03943052
      0.90800000	     -2.08362338	     -2.25046553	     -1.42714879	     -0.20242074	      1.04896406	      0.34088289	     -5.16667963	      7.39259372	      2.00276212	    -17.11944909	     10.83102285	    -11.91076036	      3.08766573	     23.35935874	     -0.65274684	     -3.83665954	     -2.10793448	      0.58852860	      0.01346496	      5.46807561	      3.30497072	      6.73862954	      3.06835939
      0.91216667	     -1.98251877	     -2.26078975	     -1.36857374	     -0.19642016	      1.04859551	      0.34059982	     -5.25530084	      7.35969706	      1.72251480	    -17.86378593	     10.83061810	    -11.17114116	      3.12338142	     23.16430965	     -0.58098722	     -3.74117651	     -2.39279344	      0.42749367	      0.37072415	      5.41218262	      3.31412792	      6.70538450	      3.13184240
      0.91633333	     -1.96299874	     -2.19979582	     -1.45436184	     -0.19024581	      1.04822433	      0.34042431	     -5.22410109	      7.22139997	      1.52030422	    -18.69569049	     10.77229511	    -10.99989545	      3.13964984	     22.98848015	     -0.48181953	     -3.67634640	     -2.62845594	      0.34899520	      0.45596745	      5.39427360	      3.30963592	      6.67703227	      3.14608155
      0.92050000	     -1.86697897	     -2.16468020	     -1.42874081	     -0.18413420	      1.04794431	      0.34009902	     -5.25400841	      7.11392137	      1.20150679	    -19.54249943	     10.62980548	    -10.32515695	      3.20042110	     22.75677223	     -0.36546297	     -3.53011014	     -2.91133204	      0.06569255	      0.54300240	      5.35279281	      3.29584730	      6.62135501	      3.20740590
      0.92466667	     -1.80605352	     -2.13283418	     -1.50220394	     -0.17808899	      1.04766515	      0.34004476	     -5.20356740	      7.01494595	      1.04965872	    -20.48318777	     10.53326328	    -10.28389142	      3.20856548	     22.54530991	     -0.30737052	     -3.44923910	     -3.20379436	     -0.00376635	      0.58058567	      5.35026515	      3.35403759	      6.57175821	      3.21798600
      0.92883333	     -1.76236459	     -2.02983283	     -1.49161041	     -0.17178497	      1.04741664	      0.33950041	     -5.11306666	      6.78989560	      0.61173120	    -21.45351912	     10.22047858	     -9.43176592	      3.31268741	     22.31583907	     -0.09961937	     -3.20373792	     -3.43564544	     -0.47954768	      0.41546005	      5.32800290	      3.31181962	      6.52281421	      3.27885111
